<svg xmlns="http://www.w3.org/2000/svg" viewBox="0 0 64 64" width="64" height="64" fill="none">
    <defs>
        <linearGradient id="bgGrad_72_caffeinebar" x1="0%" y1="0%" x2="100%" y2="100%">
            <stop offset="0%" stop-color="#D97706" stop-opacity="0.22"/>
            <stop offset="100%" stop-color="#F59E0B" stop-opacity="0.06"/>
        </linearGradient>
        <linearGradient id="fgGrad_72_caffeinebar" x1="0%" y1="0%" x2="100%" y2="100%">
            <stop offset="0%" stop-color="#D97706"/>
            <stop offset="50%" stop-color="#F59E0B"/>
            <stop offset="100%" stop-color="#EF4444"/>
        </linearGradient>
        <filter id="glow_72_caffeinebar" x="-20%" y="-20%" width="140%" height="140%">
            <feDropShadow dx="0" dy="4" stdDeviation="6" flood-color="#D97706" flood-opacity="0.35"/>
        </filter>
    </defs>
    
    <!-- Base Squircle Container -->
    <rect x="4" y="4" width="56" height="56" rx="14" fill="url(#bgGrad_72_caffeinebar)" stroke="url(#fgGrad_72_caffeinebar)" stroke-width="1.5" filter="url(#glow_72_caffeinebar)"/>
    
    <!-- Custom Vector Icon Glyph -->
    <g>
        <path d="M20 26H40V38C40 42 36 46 30 46C24 46 20 42 20 38V26Z" fill="url(#fgGrad_72_caffeinebar)"/>
        <path d="M40 28H44C46 28 48 30 48 32C48 34 46 36 44 36H40" stroke="url(#fgGrad_72_caffeinebar)" stroke-width="2.5"/>
        <path d="M26 16C26 20 28 20 28 24M34 16C34 20 36 20 36 24" stroke="white" stroke-width="2" stroke-linecap="round"/>
    </g>
</svg>